# This file uses centimeters as units for non-parametric coordinates.

mtllib book1.mtl
g default
v -2.024946 -1.920001 0.867922
v 2.024946 -1.920001 0.867922
v -2.024946 3.840525 0.867922
v 2.024946 3.840525 0.867922
v -2.024946 3.840525 -0.867922
v 2.024946 3.840525 -0.867922
v -2.024946 -1.920001 -0.867922
v 2.024946 -1.920001 -0.867922
v -1.899161 3.777190 0.729078
v 1.899161 3.777190 0.729078
v 1.899161 3.777190 -0.729078
v -1.899161 3.777190 -0.729078
v -1.899161 -1.856666 -0.729078
v 1.899161 -1.856666 -0.729078
v 1.899161 -1.856666 0.729078
v -1.899161 -1.856666 0.729078
v -2.024946 3.772682 0.867922
v -2.024946 3.772682 -0.867922
v 2.024946 3.772682 -0.867922
v 1.899161 3.710839 -0.729078
v 1.899161 3.710839 0.729078
v 2.024946 3.772682 0.867922
v -2.024946 -1.858336 0.867922
v -2.024946 -1.858336 -0.867922
v 2.024946 -1.858336 -0.867922
v 1.899161 -1.796358 -0.729078
v 1.899161 -1.796358 0.729078
v 2.024946 -1.858336 0.867922
v -1.988031 -1.858336 0.867922
v -1.988031 -1.920001 0.867922
v -1.864539 -1.856666 0.729078
v -1.864539 -1.856666 -0.729078
v -1.988031 -1.920001 -0.867922
v -1.988031 -1.858336 -0.867922
v -1.988031 3.772682 -0.867922
v -1.988031 3.840525 -0.867922
v -1.864539 3.777190 -0.729078
v -1.864539 3.777190 0.729078
v -1.988031 3.840525 0.867922
v -1.988031 3.772682 0.867922
v -2.024946 -1.920001 -0.807126
v -2.024946 -1.858336 -0.807126
v -2.024946 3.772682 -0.807126
v -2.024946 3.840525 -0.807126
v -1.899161 3.777190 -0.678008
v -1.864539 3.777190 -0.678008
v 1.899161 3.777190 -0.678008
v 1.899161 3.710839 -0.678008
v 1.899161 -1.796357 -0.678008
v 1.899161 -1.856666 -0.678008
v -1.864539 -1.856666 -0.678008
v -1.899161 -1.856666 -0.678008
v -2.024946 -1.858336 0.844827
v -2.024946 -1.920001 0.844827
v -1.899161 -1.856666 0.709678
v -1.864539 -1.856666 0.709678
v 1.899161 -1.856666 0.709678
v 1.899161 -1.796358 0.709678
v 1.899161 3.710839 0.709678
v 1.899162 3.777190 0.709678
v -1.864539 3.777190 0.709678
v -1.899162 3.777190 0.709678
v -2.024946 3.840525 0.844827
v -2.024946 3.772682 0.844827
v 1.981432 -1.920001 0.867922
v 1.981432 -1.858336 0.867922
v 1.981432 3.772682 0.867922
v 1.981432 3.840525 0.867922
v 1.858350 3.777190 0.729078
v 1.858350 3.777190 0.709678
v 1.858350 3.777190 -0.678008
v 1.858350 3.777190 -0.729078
v 1.981432 3.840525 -0.867922
v 1.981432 3.772682 -0.867922
v 1.981432 -1.858336 -0.867922
v 1.981432 -1.920001 -0.867922
v 1.858350 -1.856666 -0.729078
v 1.858350 -1.856666 -0.678008
v 1.858350 -1.856666 0.709678
v 1.858350 -1.856666 0.729078
v 1.993557 3.824720 0.833274
v 1.950718 3.824720 0.833274
v -1.957214 3.824720 0.833274
v -1.993557 3.824720 0.833274
v -1.993557 3.824720 0.811102
v -1.993557 3.824720 -0.774906
v -1.993557 3.824720 -0.833274
v -1.957214 3.824720 -0.833274
v 1.950718 3.824720 -0.833274
v 1.993557 3.824720 -0.833274
v 1.993557 3.757249 -0.833274
v 1.993557 -1.842870 -0.833274
v 1.993557 -1.904196 -0.833274
v 1.950718 -1.904196 -0.833274
v -1.957214 -1.904196 -0.833274
v -1.993557 -1.904196 -0.833274
v -1.993557 -1.904196 -0.774906
v -1.993557 -1.904196 0.811102
v -1.993557 -1.904196 0.833274
v -1.957214 -1.904196 0.833274
v 1.950718 -1.904196 0.833274
v 1.993557 -1.904196 0.833274
v 1.993557 -1.842870 0.833274
v 1.993557 3.757249 0.833274
v 1.824429 3.777190 0.729078
v 1.824429 3.777190 0.709678
v 1.824429 3.777190 -0.678008
v 1.824429 3.777190 -0.729078
v 1.915110 3.824720 -0.833274
v 1.945263 3.840525 -0.867922
v 1.945263 3.772682 -0.867922
v 1.945263 -1.858336 -0.867922
v 1.945263 -1.920001 -0.867922
v 1.915110 -1.904196 -0.833274
v 1.824429 -1.856666 -0.729078
v 1.824428 -1.856666 -0.678008
v 1.824429 -1.856666 0.709678
v 1.824429 -1.856666 0.729078
v 1.915110 -1.904196 0.833274
v 1.945263 -1.920001 0.867922
v 1.945263 -1.858336 0.867922
v 1.945263 3.772682 0.867922
v 1.945263 3.840525 0.867922
v 1.915110 3.824720 0.833274
v -1.915165 3.785248 0.726873
v -1.915165 3.785248 0.746743
v -1.880251 3.785248 0.746743
v 1.839802 3.785248 0.746743
v 1.874010 3.785248 0.746743
v 1.915165 3.785248 0.746743
v 1.915165 3.718707 0.746743
v 1.915165 -1.804243 0.746743
v 1.915165 -1.864724 0.746743
v 1.874010 -1.864724 0.746743
v 1.839802 -1.864724 0.746743
v -1.880251 -1.864724 0.746743
v -1.915165 -1.864724 0.746743
v -1.915165 -1.864724 0.726873
v -1.915165 -1.864724 -0.694436
v -1.915165 -1.864724 -0.746743
v -1.880251 -1.864724 -0.746743
v 1.839802 -1.864724 -0.746743
v 1.874010 -1.864724 -0.746743
v 1.915165 -1.864724 -0.746743
v 1.915165 -1.804243 -0.746743
v 1.915165 3.718707 -0.746743
v 1.915165 3.785248 -0.746743
v 1.874010 3.785248 -0.746743
v 1.839802 3.785248 -0.746743
v -1.880251 3.785248 -0.746743
v -1.915165 3.785248 -0.746743
v -1.915165 3.785248 -0.694436
vt 0.375000 0.000000
vt 0.625000 0.000000
vt 0.375000 0.250000
vt 0.625000 0.250000
vt 0.375000 0.500000
vt 0.625000 0.500000
vt 0.375000 0.750000
vt 0.625000 0.750000
vt 0.375000 1.000000
vt 0.625000 1.000000
vt 0.875000 0.000000
vt 0.875000 0.250000
vt 0.125000 0.000000
vt 0.125000 0.250000
vt 0.375000 0.250000
vt 0.625000 0.250000
vt 0.625000 0.500000
vt 0.375000 0.500000
vt 0.375000 0.750000
vt 0.625000 0.750000
vt 0.625000 1.000000
vt 0.375000 1.000000
vt 0.875000 0.000000
vt 0.875000 0.250000
vt 0.625000 0.000000
vt 0.375000 0.247056
vt 0.125000 0.247056
vt 0.375000 0.502944
vt 0.625000 0.502944
vt 0.875000 0.247056
vt 0.875000 0.247056
vt 0.625000 0.247056
vt 0.625000 0.247056
vt 0.375000 0.002676
vt 0.125000 0.002676
vt 0.375000 0.747324
vt 0.625000 0.747324
vt 0.875000 0.002676
vt 0.875000 0.002676
vt 0.625000 0.002676
vt 0.625000 0.002676
vt 0.377279 0.002676
vt 0.377279 0.000000
vt 0.377279 1.000000
vt 0.377279 1.000000
vt 0.377279 0.750000
vt 0.377279 0.750000
vt 0.377279 0.747324
vt 0.377279 0.502944
vt 0.377279 0.500000
vt 0.377279 0.500000
vt 0.377279 0.250000
vt 0.377279 0.250000
vt 0.377279 0.247056
vt 0.133756 0.000000
vt 0.375000 0.758756
vt 0.133756 0.002676
vt 0.133756 0.247056
vt 0.133756 0.250000
vt 0.375000 0.491244
vt 0.375000 0.491244
vt 0.377279 0.491244
vt 0.625000 0.491244
vt 0.866244 0.250000
vt 0.866244 0.247056
vt 0.866244 0.002676
vt 0.625000 0.758756
vt 0.866244 0.000000
vt 0.377279 0.758756
vt 0.375000 0.758756
vt 0.371674 0.002676
vt 0.371674 0.000000
vt 0.375000 0.996674
vt 0.375000 0.996674
vt 0.377279 0.996674
vt 0.625000 0.996674
vt 0.628326 0.000000
vt 0.628326 0.002676
vt 0.628326 0.247056
vt 0.625000 0.253326
vt 0.628326 0.250000
vt 0.377279 0.253326
vt 0.375000 0.253326
vt 0.371674 0.250000
vt 0.375000 0.253326
vt 0.371674 0.247056
vt 0.622314 0.000000
vt 0.622314 1.000000
vt 0.622314 0.002676
vt 0.622314 0.247056
vt 0.622314 0.250000
vt 0.622314 0.250000
vt 0.622314 0.253326
vt 0.622314 0.491244
vt 0.622314 0.500000
vt 0.622314 0.500000
vt 0.622314 0.502944
vt 0.622314 0.747324
vt 0.622314 0.750000
vt 0.622314 0.750000
vt 0.622314 0.758756
vt 0.622314 0.996674
vt 0.622314 1.000000
vt 0.625000 0.250000
vt 0.622314 0.250000
vt 0.377279 0.250000
vt 0.375000 0.250000
vt 0.375000 0.253326
vt 0.375000 0.491244
vt 0.375000 0.500000
vt 0.377279 0.500000
vt 0.622314 0.500000
vt 0.875000 0.250000
vt 0.625000 0.500000
vt 0.875000 0.247056
vt 0.875000 0.002676
vt 0.625000 0.750000
vt 0.875000 0.000000
vt 0.622314 0.750000
vt 0.377279 0.750000
vt 0.375000 0.750000
vt 0.375000 0.758756
vt 0.375000 0.996674
vt 0.375000 1.000000
vt 0.377279 1.000000
vt 0.622314 1.000000
vt 0.625000 0.000000
vt 0.625000 1.000000
vt 0.625000 0.002676
vt 0.625000 0.247056
vt 0.620081 0.250000
vt 0.620081 0.253326
vt 0.620081 0.491244
vt 0.620081 0.500000
vt 0.620081 0.500000
vt 0.620081 0.500000
vt 0.620081 0.502944
vt 0.620081 0.747324
vt 0.620081 0.750000
vt 0.620081 0.750000
vt 0.620081 0.750000
vt 0.620081 0.758756
vt 0.620081 0.996674
vt 0.620081 1.000000
vt 0.620081 1.000000
vt 0.620081 0.000000
vt 0.620081 1.000000
vt 0.620081 0.002676
vt 0.620081 0.247056
vt 0.620081 0.250000
vt 0.620081 0.250000
vt 0.375000 0.253326
vt 0.375000 0.250000
vt 0.377279 0.250000
vt 0.620081 0.250000
vt 0.622314 0.250000
vt 0.625000 0.250000
vt 0.625000 0.247056
vt 0.625000 0.002676
vt 0.625000 0.000000
vt 0.625000 1.000000
vt 0.622314 1.000000
vt 0.620081 1.000000
vt 0.377279 1.000000
vt 0.375000 1.000000
vt 0.375000 0.996674
vt 0.375000 0.758756
vt 0.375000 0.750000
vt 0.377279 0.750000
vt 0.620081 0.750000
vt 0.622314 0.750000
vt 0.625000 0.750000
vt 0.875000 0.000000
vt 0.875000 0.002676
vt 0.875000 0.247056
vt 0.875000 0.250000
vt 0.625000 0.500000
vt 0.622314 0.500000
vt 0.620081 0.500000
vt 0.377279 0.500000
vt 0.375000 0.500000
vt 0.375000 0.491244
vn 0.000000 0.000000 1.000000
vn 0.000000 0.000000 1.000000
vn 0.000000 0.000000 1.000000
vn 0.000000 0.000000 1.000000
vn 0.000000 1.000000 0.000000
vn 0.000000 1.000000 0.000000
vn 0.000000 1.000000 0.000000
vn 0.000000 1.000000 0.000000
vn 0.000000 0.000000 -1.000000
vn 0.000000 0.000000 -1.000000
vn 0.000000 0.000000 -1.000000
vn 0.000000 0.000000 -1.000000
vn 0.000000 -1.000000 -0.000000
vn 0.000000 -1.000000 0.000000
vn 0.000000 -1.000000 0.000000
vn 0.000000 -1.000000 0.000000
vn 1.000000 0.000000 -0.000000
vn 1.000000 0.000000 0.000002
vn 1.000000 0.000000 0.000002
vn 1.000000 0.000000 0.000000
vn -1.000000 0.000000 0.000000
vn -1.000000 0.000000 0.000000
vn -1.000000 0.000000 0.000000
vn -1.000000 0.000000 0.000000
vn -0.000000 0.909813 -0.415019
vn 0.000000 0.909813 -0.415019
vn 0.000000 0.909812 -0.415020
vn -0.000000 0.909812 -0.415020
vn -0.000000 0.909814 0.415017
vn -0.000000 0.909814 0.415017
vn -0.000000 0.909813 0.415019
vn -0.000000 0.909813 0.415019
vn 0.449726 0.893167 0.000000
vn 0.449724 0.893167 0.000000
vn 0.449724 0.893167 0.000000
vn 0.449726 0.893166 0.000000
vn -0.000000 -0.909813 0.415019
vn 0.000000 -0.909813 0.415019
vn 0.000000 -0.909812 0.415020
vn -0.000000 -0.909812 0.415020
vn -0.000000 -0.909812 -0.415020
vn -0.000000 -0.909813 -0.415018
vn -0.000000 -0.909813 -0.415018
vn -0.000000 -0.909812 -0.415020
vn 0.449724 -0.893167 -0.000000
vn 0.449724 -0.893168 0.000000
vn 0.449725 -0.893167 0.000000
vn 0.449726 -0.893167 -0.000001
vn 0.741100 0.000000 0.671395
vn 0.741099 0.000000 0.671396
vn 0.741100 0.000000 0.671395
vn 0.741099 0.000000 0.671395
vn 0.741099 0.000000 -0.671396
vn 0.741099 0.000000 -0.671395
vn 0.741099 0.000000 -0.671395
vn 0.741100 0.000000 -0.671395
vn -1.000000 0.000000 0.000000
vn -1.000000 0.000000 0.000000
vn -1.000000 0.000000 0.000000
vn -1.000000 0.000000 0.000000
vn 0.000000 0.000000 -1.000000
vn 0.000000 0.000000 -1.000000
vn 0.000000 0.000000 -1.000000
vn 0.000000 0.000000 -1.000000
vn 0.741100 0.000000 0.671395
vn 0.741099 0.000000 0.671396
vn 0.741100 0.000000 0.671395
vn 0.741100 0.000000 0.671395
vn 1.000000 -0.000000 -0.000000
vn 1.000000 -0.000000 0.000002
vn 1.000000 -0.000002 0.000001
vn 1.000000 -0.000002 -0.000000
vn 0.741100 0.000000 -0.671395
vn 0.741099 0.000000 -0.671396
vn 0.741100 0.000000 -0.671395
vn 0.741100 0.000000 -0.671394
vn 0.000000 0.000000 1.000000
vn 0.000000 0.000000 1.000000
vn 0.000000 0.000000 1.000000
vn 0.000000 0.000000 1.000000
vn 0.000000 0.000000 1.000000
vn 0.000000 0.000000 1.000000
vn 0.000000 -0.909814 -0.415017
vn 0.000000 -0.909813 -0.415019
vn 0.000000 -1.000000 -0.000002
vn 0.000000 -1.000000 -0.000000
vn -0.000002 -0.909812 0.415020
vn -0.000002 -0.909812 0.415020
vn 0.000000 0.000000 -1.000000
vn 0.000000 0.000000 -1.000000
vn 0.000000 0.000000 -1.000000
vn 0.000000 0.000000 -1.000000
vn 0.000000 0.909814 0.415017
vn 0.000000 0.909813 0.415019
vn 0.000000 1.000000 0.000000
vn 0.000000 1.000000 0.000000
vn -0.000002 0.909812 -0.415020
vn -0.000002 0.909812 -0.415020
vn 0.000000 0.000000 1.000000
vn 0.000000 0.000000 1.000000
vn -1.000000 0.000000 0.000000
vn -1.000000 0.000000 0.000000
vn -1.000000 0.000000 0.000000
vn -1.000000 0.000000 0.000000
vn -1.000000 0.000000 0.000000
vn -1.000000 0.000000 0.000000
vn -1.000000 0.000000 0.000000
vn -1.000000 0.000000 0.000000
vn 0.449724 0.893167 0.000000
vn 0.449724 0.893168 0.000000
vn 0.449725 0.893167 0.000000
vn 0.449726 0.893166 0.000000
vn 0.000000 1.000000 -0.000005
vn 0.000000 1.000000 -0.000000
vn 0.000000 1.000000 0.000000
vn 0.000000 1.000000 0.000000
vn 0.000000 1.000000 0.000000
vn 0.000000 1.000000 0.000000
vn 1.000000 -0.000000 0.000000
vn 1.000000 -0.000000 -0.000000
vn 1.000000 -0.000002 -0.000000
vn 1.000000 -0.000003 0.000003
vn 1.000000 0.000000 0.000000
vn 1.000000 0.000000 -0.000000
vn 1.000000 0.000000 0.000000
vn 1.000000 0.000000 -0.000000
vn 0.000000 -1.000000 0.000000
vn 0.000000 -1.000000 0.000000
vn 0.000000 -1.000000 0.000000
vn 0.000000 -1.000000 0.000000
vn 0.000000 -1.000000 0.000000
vn 0.000000 -1.000000 0.000000
vn 0.449725 -0.893167 0.000000
vn 0.449724 -0.893168 0.000000
vn 0.449724 -0.893167 0.000000
vn 0.449726 -0.893167 0.000000
vn 0.000000 0.000000 1.000000
vn 0.000000 0.000000 1.000000
vn 0.000000 0.000000 1.000000
vn 0.000000 0.000000 1.000000
vn 0.000000 0.000000 1.000000
vn 0.000000 0.000000 1.000000
vn 0.000000 0.000000 1.000000
vn 0.000000 0.000000 1.000000
vn 0.000000 0.909813 -0.415019
vn 0.000000 0.909814 -0.415015
vn 0.000000 0.909815 -0.415015
vn 0.000000 0.909813 -0.415018
vn 0.000000 1.000000 0.000000
vn 0.000000 1.000000 0.000002
vn 0.000000 1.000000 0.000000
vn 0.000000 1.000000 0.000000
vn 0.000000 1.000000 0.000000
vn 0.000000 1.000000 0.000000
vn 0.000000 1.000000 0.000000
vn 0.000000 1.000000 0.000000
vn 0.000001 0.909813 0.415018
vn 0.000001 0.909814 0.415016
vn 0.000001 0.909813 0.415019
vn 0.000002 0.909813 0.415019
vn 0.000000 0.000000 -1.000000
vn 0.000000 0.000000 -1.000000
vn 0.000000 0.000000 -1.000000
vn 0.000000 0.000000 -1.000000
vn 0.000000 0.000000 -1.000000
vn 0.000000 0.000000 -1.000000
vn 0.000000 0.000000 -1.000000
vn 0.000000 0.000000 -1.000000
vn 0.000000 -0.909813 0.415019
vn 0.000000 -0.909814 0.415015
vn 0.000000 -0.909815 0.415015
vn 0.000000 -0.909813 0.415018
vn 0.000000 -1.000000 0.000000
vn 0.000000 -1.000000 0.000000
vn 0.000000 -1.000000 0.000000
vn 0.000000 -1.000000 0.000000
vn 0.000000 -1.000000 0.000000
vn 0.000000 -1.000000 0.000000
vn 0.000000 -1.000000 0.000000
vn 0.000000 -1.000000 0.000000
vn 0.000001 -0.909813 -0.415018
vn 0.000001 -0.909814 -0.415017
vn 0.000001 -0.909813 -0.415020
vn 0.000002 -0.909813 -0.415019
vn 0.000000 0.909815 -0.415015
vn 0.000000 0.909812 -0.415020
vn 0.000000 0.909812 -0.415020
vn 0.000000 0.909813 -0.415017
vn 0.000000 0.909813 -0.415019
vn 0.000000 0.909813 -0.415019
vn 0.000000 0.909820 -0.415003
vn 0.000000 0.909820 -0.415003
vn -0.000002 0.909812 -0.415020
vn 0.000000 0.909811 -0.415022
vn 0.449721 0.893169 -0.000000
vn 0.449726 0.893167 0.000000
vn 0.449732 0.893164 0.000000
vn 0.449719 0.893170 0.000001
vn 0.449721 0.893169 -0.000000
vn 0.449726 0.893167 -0.000000
vn 0.449726 0.893166 0.000000
vn 0.449718 0.893171 0.000000
vn 0.000000 0.909818 0.415008
vn -0.000000 0.909812 0.415020
vn 0.000000 0.909812 0.415020
vn 0.000000 0.909814 0.415015
vn -0.000000 0.909812 0.415020
vn 0.000000 0.909818 0.415008
vn 0.000002 0.909813 0.415019
vn 0.000001 0.909813 0.415019
vn 0.000000 0.909817 0.415010
vn 0.000000 0.909816 0.415012
vn 0.741097 0.000000 0.671398
vn 0.741100 0.000000 0.671395
vn 0.741100 0.000000 0.671395
vn 0.741099 0.000000 0.671396
vn 0.741097 0.000000 0.671398
vn 0.741100 0.000000 0.671395
vn 0.741099 0.000000 0.671396
vn 0.741099 0.000000 0.671396
vn 0.000000 -0.909815 0.415015
vn 0.000000 -0.909812 0.415020
vn 0.000000 -0.909812 0.415020
vn 0.000000 -0.909813 0.415017
vn 0.000000 -0.909813 0.415019
vn 0.000000 -0.909813 0.415019
vn 0.000000 -0.909820 0.415003
vn 0.000000 -0.909820 0.415003
vn -0.000002 -0.909812 0.415020
vn 0.000000 -0.909811 0.415022
vn 0.449721 -0.893169 0.000000
vn 0.449725 -0.893167 0.000000
vn 0.449727 -0.893166 -0.000004
vn 0.449719 -0.893170 -0.000002
vn 0.449721 -0.893169 0.000000
vn 0.449725 -0.893167 0.000000
vn 0.449728 -0.893166 0.000000
vn 0.449723 -0.893168 0.000000
vn 0.000000 -0.909819 -0.415006
vn -0.000000 -0.909812 -0.415020
vn 0.000000 -0.909812 -0.415020
vn 0.000000 -0.909814 -0.415015
vn 0.000000 -0.909819 -0.415006
vn -0.000000 -0.909812 -0.415020
vn 0.000002 -0.909813 -0.415019
vn 0.000001 -0.909813 -0.415019
vn 0.000000 -0.909816 -0.415012
vn 0.000000 -0.909816 -0.415012
vn 0.741100 0.000000 -0.671395
vn 0.741099 0.000000 -0.671396
vn 0.741098 0.000000 -0.671397
vn 0.741097 0.000000 -0.671398
vn 0.741100 0.000000 -0.671395
vn 0.741097 0.000000 -0.671398
vn 0.741100 0.000000 -0.671394
vn 0.741099 0.000000 -0.671396
s 1
g pCube1
usemtl lambert3SG
f 30/43/1 120/146/2 121/148/3 29/42/4
s 2
usemtl lambert2SG
f 46/62/5 107/133/6 108/134/7 37/51/8
s 3
usemtl lambert3SG
f 34/48/9 112/138/10 113/139/11 33/47/12
s 4
usemtl lambert2SG
f 32/46/13 115/141/14 116/142/15 51/69/16
s 5
f 50/68/17 14/23/18 26/39/19 49/66/20
s 6
usemtl lambert3SG
f 7/13/21 41/55/22 42/57/23 24/35/24
s 7
f 39/53/25 123/150/26 124/151/27 83/106/28
s 8
f 110/136/29 36/50/30 88/111/31 109/135/32
s 9
f 5/5/33 44/60/34 86/109/35 87/110/36
s 10
f 33/47/37 113/139/38 114/140/39 95/120/40
s 11
f 119/145/41 120/147/42 30/44/43 100/125/44
s 12
usemtl lambert4SG
f 97/122/45 41/56/46 7/7/47 96/121/48
s 13
usemtl lambert3SG
f 8/11/49 25/38/50 92/116/51 93/118/52
s 14
f 28/41/53 2/2/54 102/127/55 103/129/56
s 6
f 18/27/57 43/58/58 44/59/59 5/14/60
s 3
f 36/50/61 110/136/62 111/137/63 35/49/64
s 13
f 91/115/65 19/30/66 6/12/67 90/113/68
s 5
usemtl lambert2SG
f 48/65/69 20/31/70 11/24/71 47/64/72
s 14
usemtl lambert3SG
f 4/4/73 22/33/74 104/130/75 81/104/76
s 1
f 40/54/77 122/149/78 123/150/79 39/53/80
s 6
f 24/35/24 42/57/23 43/58/58 18/27/57
s 3
f 35/49/64 111/137/63 112/138/10 34/48/9
s 13
f 92/116/51 25/38/50 19/30/66 91/115/65
s 5
usemtl lambert2SG
f 49/66/20 26/39/19 20/31/70 48/65/69
s 14
usemtl lambert3SG
f 22/33/74 28/41/53 103/129/56 104/130/75
s 1
f 40/54/77 29/42/4 121/148/3 122/149/78
f 1/1/81 30/43/1 29/42/4 23/34/82
s 11
f 100/125/44 30/44/43 1/9/83 99/124/84
s 4
usemtl lambert2SG
f 13/19/85 32/46/13 51/69/16 52/70/86
s 10
usemtl lambert3SG
f 7/7/87 33/47/37 95/120/40 96/121/88
s 3
f 24/36/89 34/48/9 33/47/12 7/7/90
f 18/28/91 35/49/64 34/48/9 24/36/89
f 5/5/92 36/50/61 35/49/64 18/28/91
s 8
f 88/111/31 36/50/30 5/5/93 87/110/94
s 2
usemtl lambert2SG
f 45/61/95 46/62/5 37/51/8 12/18/96
s 7
usemtl lambert3SG
f 3/3/97 39/53/25 83/106/28 84/107/98
s 1
f 17/26/99 40/54/77 39/53/80 3/3/100
f 23/34/82 29/42/4 40/54/77 17/26/99
s 6
f 54/72/101 1/1/102 23/34/103 53/71/104
f 64/86/105 53/71/104 23/34/103 17/26/106
f 63/84/107 64/86/105 17/26/106 3/3/108
s 9
f 85/108/109 63/85/110 3/3/111 84/107/112
s 2
usemtl lambert2SG
f 9/15/113 38/52/114 61/82/115 62/83/116
f 38/52/114 105/131/117 106/132/118 61/82/115
s 5
f 21/32/119 59/79/120 60/81/121 10/16/122
f 27/40/123 58/78/124 59/79/120 21/32/119
f 15/25/125 57/77/126 58/78/124 27/40/123
s 4
f 56/75/127 117/143/128 118/144/129 31/45/130
f 55/74/131 56/75/127 31/45/130 16/22/132
s 12
usemtl lambert4SG
f 1/9/133 54/73/134 98/123/135 99/124/136
s 6
usemtl lambert3SG
f 41/55/22 54/72/101 53/71/104 42/57/23
s 12
usemtl lambert4SG
f 98/123/135 54/73/134 41/56/46 97/122/45
s 4
usemtl lambert2SG
f 52/70/86 51/69/16 56/75/127 55/74/131
f 51/69/16 116/142/15 117/143/128 56/75/127
s 5
f 58/78/124 57/77/126 50/68/17 49/66/20
f 59/79/120 58/78/124 49/66/20 48/65/69
f 60/81/121 59/79/120 48/65/69 47/64/72
s 2
f 61/82/115 106/132/118 107/133/6 46/62/5
f 62/83/116 61/82/115 46/62/5 45/61/95
s 9
usemtl lambert3SG
f 86/109/35 44/60/34 63/85/110 85/108/109
s 6
f 44/59/59 43/58/58 64/86/105 63/84/107
f 43/58/58 42/57/23 53/71/104 64/86/105
s 1
f 65/87/137 2/2/138 28/41/139 66/89/140
f 67/90/141 66/89/140 28/41/139 22/33/142
f 68/91/143 67/90/141 22/33/142 4/4/144
s 7
f 82/105/145 68/91/146 4/4/147 81/104/148
s 2
usemtl lambert2SG
f 70/93/149 69/92/150 10/16/151 60/80/152
f 71/94/153 70/93/149 60/80/152 47/63/154
f 72/95/155 71/94/153 47/63/154 11/17/156
s 8
usemtl lambert3SG
f 6/6/157 73/96/158 89/112/159 90/114/160
s 3
f 74/97/161 73/96/162 6/6/163 19/29/164
f 75/98/165 74/97/161 19/29/164 25/37/166
f 76/99/167 75/98/165 25/37/166 8/8/168
s 10
f 94/119/169 76/99/170 8/8/171 93/117/172
s 4
usemtl lambert2SG
f 78/101/173 77/100/174 14/20/175 50/67/176
f 79/102/177 78/101/173 50/67/176 57/76/178
f 80/103/179 79/102/177 57/76/178 15/21/180
s 11
usemtl lambert3SG
f 2/10/181 65/88/182 101/126/183 102/128/184
s 7
f 69/92/185 129/156/186 130/157/187 10/16/188
f 127/154/189 128/155/190 105/131/191 38/52/192
f 126/153/193 127/154/189 38/52/192 9/15/194
s 9
f 62/83/195 125/152/196 126/153/197 9/15/198
f 45/61/199 152/182/200 125/152/196 62/83/195
f 151/181/201 152/182/200 45/61/199 12/18/202
s 8
f 37/51/203 150/180/204 151/181/205 12/18/206
f 149/179/207 150/180/204 37/51/203 108/134/208
f 147/177/209 148/178/210 72/95/211 11/17/212
s 13
f 20/31/213 146/175/214 147/176/215 11/24/216
f 26/39/217 145/174/218 146/175/214 20/31/213
f 144/173/219 145/174/218 26/39/217 14/23/220
s 10
f 77/100/221 143/171/222 144/172/223 14/20/224
f 141/169/225 142/170/226 115/141/227 32/46/228
f 140/168/229 141/169/225 32/46/228 13/19/230
s 12
usemtl lambert4SG
f 52/70/231 139/167/232 140/168/233 13/19/234
f 55/74/235 138/166/236 139/167/232 52/70/231
f 137/165/237 138/166/236 55/74/235 16/22/238
s 11
usemtl lambert3SG
f 31/45/239 136/164/240 137/165/241 16/22/242
f 118/144/243 135/163/244 136/164/240 31/45/239
f 133/161/245 134/162/246 80/103/247 15/21/248
s 14
f 132/159/249 133/160/250 15/25/251 27/40/252
f 131/158/253 132/159/249 27/40/252 21/32/254
f 130/157/255 131/158/253 21/32/254 10/16/256
s 2
usemtl lambert2SG
f 105/131/117 69/92/150 70/93/149 106/132/118
f 107/133/6 106/132/118 70/93/149 71/94/153
f 108/134/7 107/133/6 71/94/153 72/95/155
s 8
usemtl lambert3SG
f 148/178/210 149/179/207 108/134/208 72/95/211
f 73/96/158 110/136/29 109/135/32 89/112/159
s 3
f 111/137/63 110/136/62 73/96/162 74/97/161
f 112/138/10 111/137/63 74/97/161 75/98/165
f 113/139/11 112/138/10 75/98/165 76/99/167
s 10
f 114/140/39 113/139/38 76/99/170 94/119/169
f 115/141/227 142/170/226 143/171/222 77/100/221
s 4
usemtl lambert2SG
f 116/142/15 115/141/14 77/100/174 78/101/173
f 117/143/128 116/142/15 78/101/173 79/102/177
f 118/144/129 117/143/128 79/102/177 80/103/179
s 11
usemtl lambert3SG
f 80/103/247 134/162/246 135/163/244 118/144/243
f 101/126/183 65/88/182 120/147/42 119/145/41
s 1
f 121/148/3 120/146/2 65/87/137 66/89/140
f 122/149/78 121/148/3 66/89/140 67/90/141
f 123/150/79 122/149/78 67/90/141 68/91/143
s 7
f 124/151/27 123/150/26 68/91/146 82/105/145
f 105/131/191 128/155/190 129/156/186 69/92/185
s 9
f 125/152/196 85/108/109 84/107/112 126/153/197
s 7
f 84/107/98 83/106/28 127/154/189 126/153/193
f 83/106/28 124/151/27 128/155/190 127/154/189
f 129/156/186 128/155/190 124/151/27 82/105/145
f 130/157/187 129/156/186 82/105/145 81/104/148
s 14
f 81/104/76 104/130/75 131/158/253 130/157/255
f 104/130/75 103/129/56 132/159/249 131/158/253
f 103/129/56 102/127/55 133/160/250 132/159/249
s 11
f 102/128/184 101/126/183 134/162/246 133/161/245
f 135/163/244 134/162/246 101/126/183 119/145/41
f 136/164/240 135/163/244 119/145/41 100/125/44
f 137/165/241 136/164/240 100/125/44 99/124/84
s 12
usemtl lambert4SG
f 99/124/136 98/123/135 138/166/236 137/165/237
f 139/167/232 138/166/236 98/123/135 97/122/45
f 140/168/233 139/167/232 97/122/45 96/121/48
s 10
usemtl lambert3SG
f 96/121/88 95/120/40 141/169/225 140/168/229
f 95/120/40 114/140/39 142/170/226 141/169/225
f 143/171/222 142/170/226 114/140/39 94/119/169
f 144/172/223 143/171/222 94/119/169 93/117/172
s 13
f 93/118/52 92/116/51 145/174/218 144/173/219
f 146/175/214 145/174/218 92/116/51 91/115/65
f 147/176/215 146/175/214 91/115/65 90/113/68
s 8
f 90/114/160 89/112/159 148/178/210 147/177/209
f 89/112/159 109/135/32 149/179/207 148/178/210
f 109/135/32 88/111/31 150/180/204 149/179/207
f 151/181/205 150/180/204 88/111/31 87/110/94
s 9
f 87/110/36 86/109/35 152/182/200 151/181/201
f 125/152/196 152/182/200 86/109/35 85/108/109
